<svg width="14" height="14" viewBox="0 0 14 14" fill="none" xmlns="http://www.w3.org/2000/svg">
<g clip-path="url(#clip0_156_1161)">
<path d="M12.25 0H1.75C0.783125 0 0 0.783125 0 1.75V4.375H5.25V3.0625C5.25 2.89275 5.348 2.73788 5.502 2.66613C5.656 2.5935 5.83713 2.61713 5.9675 2.72563L8.5925 4.91313C8.69225 4.99625 8.75 5.11963 8.75 5.24913C8.75 5.37863 8.69225 5.502 8.5925 5.58513L5.9675 7.77263C5.887 7.83913 5.78725 7.87413 5.6875 7.87413C5.6245 7.87413 5.56063 7.86013 5.502 7.833C5.348 7.76125 5.25 7.60638 5.25 7.43663V6.12413H0V8.74913C0 9.716 0.783125 10.4991 1.75 10.4991H3.5V13.5616C3.5 13.7296 3.59625 13.8828 3.74763 13.9563C3.808 13.9851 3.87275 13.9991 3.9375 13.9991C4.03463 13.9991 4.13175 13.9668 4.2105 13.9038L8.46563 10.4991H12.2491C13.216 10.4991 13.9991 9.716 13.9991 8.74913V1.75C13.9991 0.783125 13.216 0 12.2491 0H12.25Z" fill="#585858"/>
</g>
<defs>
<clipPath id="clip0_156_1161">
<rect width="14" height="14" fill="white"/>
</clipPath>
</defs>
</svg>
