<svg width="17" height="17" viewBox="0 0 17 17" fill="none" xmlns="http://www.w3.org/2000/svg">
<g clip-path="url(#clip0_309_806)">
<path d="M8.5 0.5C4.1 0.5 0.5 4.1 0.5 8.5C0.5 12.9 4.1 16.5 8.5 16.5C12.9 16.5 16.5 12.9 16.5 8.5C16.5 4.1 12.9 0.5 8.5 0.5ZM12.207 7.207L8.207 11.207C8.012 11.402 7.756 11.5 7.5 11.5C7.244 11.5 6.988 11.402 6.793 11.207L4.793 9.207C4.402 8.816 4.402 8.184 4.793 7.793C5.184 7.402 5.816 7.402 6.207 7.793L7.5 9.086L10.793 5.793C11.184 5.402 11.816 5.402 12.207 5.793C12.598 6.184 12.598 6.816 12.207 7.207Z" fill="black"/>
</g>
<defs>
<clipPath id="clip0_309_806">
<rect width="16" height="16" fill="white" transform="translate(0.5 0.5)"/>
</clipPath>
</defs>
</svg>
