<svg width="14" height="14" viewBox="0 0 14 14" fill="none" xmlns="http://www.w3.org/2000/svg">
    <g clip-path="url(#clip0_156_1157)">
        <path d="M13.1252 3.5H0.875179C0.745413 3.49997 0.617266 3.52881 0.50002 3.58442C0.382774 3.64003 0.279366 3.72102 0.197284 3.82153C0.115203 3.92204 0.0565046 4.03955 0.0254407 4.16554C-0.00562314 4.29153 -0.00827454 4.42286 0.0176786 4.55L1.76768 13.3C1.80802 13.4976 1.91541 13.6753 2.07167 13.8028C2.22793 13.9304 2.42346 14 2.62518 14H11.3752C11.5769 14 11.7724 13.9304 11.9287 13.8028C12.0849 13.6753 12.1923 13.4976 12.2327 13.3L13.9827 4.55C14.0086 4.42286 14.006 4.29153 13.9749 4.16554C13.9439 4.03955 13.8852 3.92204 13.8031 3.82153C13.721 3.72102 13.6176 3.64003 13.5003 3.58442C13.3831 3.52881 13.2549 3.49997 13.1252 3.5Z" />
        <path d="M2.625 1.75H11.375C11.6071 1.75 11.8296 1.65781 11.9937 1.49372C12.1578 1.32962 12.25 1.10706 12.25 0.875C12.25 0.642936 12.1578 0.420376 11.9937 0.256282C11.8296 0.0921873 11.6071 0 11.375 0L2.625 0C2.39294 0 2.17038 0.0921873 2.00628 0.256282C1.84219 0.420376 1.75 0.642936 1.75 0.875C1.75 1.10706 1.84219 1.32962 2.00628 1.49372C2.17038 1.65781 2.39294 1.75 2.625 1.75Z" fill="#585858"/>
    </g>
    <defs>
        <clipPath id="clip0_156_1157">
            <rect width="14" height="14" fill="white"/>
        </clipPath>
    </defs>
</svg>