<svg width="10" height="10" viewBox="0 0 10 10" fill="none" xmlns="http://www.w3.org/2000/svg">
<g opacity="0.8">
<path d="M5 3.75C6.8125 3.75 8.75 3.1875 8.75 1.875C8.75 0.5625 6.8125 0 5 0C3.1875 0 1.25 0.5625 1.25 1.875C1.25 3.1875 3.1875 3.75 5 3.75Z" fill="#585858"/>
<path d="M1.25 4.0625V5C1.25 6.3125 3.1875 6.875 5 6.875C6.8125 6.875 8.75 6.3125 8.75 5V4.0625C7.875 4.625 6.5625 5 5 5C3.4375 5 2.125 4.625 1.25 4.0625Z" fill="#585858"/>
<path d="M1.25 7.1875V8.125C1.25 9.4375 3.1875 10 5 10C6.8125 10 8.75 9.4375 8.75 8.125V7.1875C7.875 7.8125 6.5625 8.125 5 8.125C3.4375 8.125 2.125 7.75 1.25 7.1875Z" fill="#585858"/>
</g>
</svg>
