<svg width="10" height="10" viewBox="0 0 10 10" fill="none" xmlns="http://www.w3.org/2000/svg">
<g clip-path="url(#clip0_183_4)">
<path d="M8.74987 0.625H4.37487C4.20911 0.625 4.05014 0.690848 3.93293 0.808058C3.81572 0.925268 3.74987 1.08424 3.74987 1.25C3.74987 1.41576 3.81572 1.57473 3.93293 1.69194C4.05014 1.80915 4.20911 1.875 4.37487 1.875H7.24112L0.807993 8.30813C0.748299 8.36578 0.700685 8.43474 0.667929 8.511C0.635174 8.58725 0.617932 8.66926 0.617211 8.75225C0.61649 8.83524 0.632304 8.91754 0.663729 8.99435C0.695155 9.07116 0.741563 9.14094 0.800246 9.19962C0.858929 9.2583 0.928711 9.30471 1.00552 9.33614C1.08233 9.36756 1.16463 9.38338 1.24762 9.38266C1.33061 9.38194 1.41262 9.36469 1.48887 9.33194C1.56512 9.29918 1.63409 9.25157 1.69174 9.19187L8.12487 2.75875V5.625C8.12487 5.79076 8.19072 5.94973 8.30793 6.06694C8.42514 6.18415 8.58411 6.25 8.74987 6.25C8.91563 6.25 9.0746 6.18415 9.19181 6.06694C9.30902 5.94973 9.37487 5.79076 9.37487 5.625V1.25C9.37487 1.08424 9.30902 0.925268 9.19181 0.808058C9.0746 0.690848 8.91563 0.625 8.74987 0.625Z" fill="#585858"/>
</g>
<defs>
<clipPath id="clip0_183_4">
<rect width="10" height="10" fill="white"/>
</clipPath>
</defs>
</svg>
