<svg width="16" height="16" viewBox="0 0 16 16" fill="none" xmlns="http://www.w3.org/2000/svg">
<g clip-path="url(#clip0_318_1677)">
<path d="M7.99823 3.16667C9.17823 3.16667 10.2349 3.57333 11.0682 4.36667L13.3516 2.08333C11.9649 0.793333 10.1549 0 7.99823 0C4.87156 0 2.16823 1.79333 0.851562 4.40667L3.51156 6.47C4.14156 4.57333 5.91156 3.16667 7.99823 3.16667Z" fill="#EA4335"/>
<path d="M15.66 8.18341C15.66 7.66008 15.61 7.15341 15.5333 6.66675H8V9.67341H12.3133C12.12 10.6601 11.56 11.5001 10.72 12.0667L13.2967 14.0667C14.8 12.6734 15.66 10.6134 15.66 8.18341Z" fill="#4285F4"/>
<path d="M3.51 9.53007C3.35 9.04674 3.25667 8.5334 3.25667 8.00007C3.25667 7.46674 3.34667 6.9534 3.51 6.47007L0.85 4.40674C0.306667 5.48674 0 6.70674 0 8.00007C0 9.29341 0.306667 10.5134 0.853333 11.5934L3.51 9.53007Z" fill="#FBBC05"/>
<path d="M8.00156 15.9999C10.1616 15.9999 11.9782 15.2899 13.2982 14.0633L10.7216 12.0633C10.0049 12.5466 9.08156 12.8299 8.00156 12.8299C5.9149 12.8299 4.1449 11.4233 3.51156 9.52661L0.851562 11.5899C2.17156 14.2066 4.8749 15.9999 8.00156 15.9999Z" fill="#34A853"/>
</g>
<defs>
<clipPath id="clip0_318_1677">
<rect width="16" height="16" fill="white"/>
</clipPath>
</defs>
</svg>
