<svg width="90" height="25" viewBox="0 0 90 25" fill="none" xmlns="http://www.w3.org/2000/svg">
<rect y="0.5" width="34.2857" height="24" rx="5" fill="#1A1A1A"/>
<path fill-rule="evenodd" clip-rule="evenodd" d="M7.99888 5.07153C6.10534 5.07153 4.57031 6.60656 4.57031 8.5001V16.5001C4.57031 18.3937 6.10534 19.9287 7.99888 19.9287C9.89243 19.9287 11.4275 18.3937 11.4275 16.5001V8.50011C11.4275 6.60656 9.89243 5.07153 7.99888 5.07153ZM22.2846 5.07153C18.1819 5.07153 14.856 8.39742 14.856 12.5001C14.856 16.6028 18.1819 19.9287 22.2846 19.9287C26.3873 19.9287 29.7132 16.6028 29.7132 12.5001C29.7132 8.39742 26.3873 5.07153 22.2846 5.07153Z" fill="white"/>
<path opacity="0.9" d="M41.7486 19V5.90909H46.6577C47.6634 5.90909 48.5071 6.09659 49.189 6.47159C49.875 6.84659 50.3928 7.36222 50.7422 8.01847C51.0959 8.67045 51.2728 9.41193 51.2728 10.2429C51.2728 11.0824 51.0959 11.8281 50.7422 12.4801C50.3885 13.1321 49.8665 13.6456 49.1762 14.0206C48.4858 14.3913 47.6357 14.5767 46.6257 14.5767H43.3722V12.6271H46.3061C46.8942 12.6271 47.3757 12.5249 47.7507 12.3203C48.1257 12.1158 48.4027 11.8345 48.5817 11.4766C48.765 11.1186 48.8566 10.7074 48.8566 10.2429C48.8566 9.77841 48.765 9.36932 48.5817 9.01562C48.4027 8.66193 48.1236 8.38707 47.7444 8.19105C47.3694 7.99077 46.8857 7.89062 46.2934 7.89062H44.1201V19H41.7486ZM52.6903 19V9.18182H54.9339V10.8182H55.0362C55.2152 10.2514 55.522 9.81463 55.9567 9.50781C56.3956 9.19673 56.8963 9.04119 57.4588 9.04119C57.5866 9.04119 57.7294 9.04758 57.8871 9.06037C58.049 9.06889 58.1832 9.08381 58.2898 9.10511V11.2337C58.1917 11.1996 58.0362 11.1697 57.8231 11.1442C57.6143 11.1143 57.4119 11.0994 57.2159 11.0994C56.794 11.0994 56.4148 11.1911 56.0781 11.3743C55.7457 11.5533 55.4837 11.8026 55.2919 12.1222C55.1001 12.4418 55.0042 12.8104 55.0042 13.228V19H52.6903ZM63.2293 19.1918C62.245 19.1918 61.3948 18.9872 60.6789 18.5781C59.9673 18.1648 59.4197 17.581 59.0362 16.8267C58.6526 16.0682 58.4609 15.1754 58.4609 14.1484C58.4609 13.1385 58.6526 12.2521 59.0362 11.4893C59.4239 10.7223 59.9651 10.1257 60.6597 9.69957C61.3543 9.26918 62.1704 9.05398 63.1079 9.05398C63.713 9.05398 64.284 9.15199 64.821 9.34801C65.3622 9.53977 65.8394 9.83807 66.2528 10.2429C66.6704 10.6477 66.9985 11.1634 67.2372 11.7898C67.4758 12.4119 67.5951 13.1534 67.5951 14.0142V14.7237H59.5475V13.1641H65.3771C65.3728 12.7209 65.2769 12.3267 65.0894 11.9815C64.9019 11.6321 64.6399 11.3572 64.3032 11.157C63.9708 10.9567 63.583 10.8565 63.1399 10.8565C62.6668 10.8565 62.2514 10.9716 61.8934 11.2017C61.5354 11.4276 61.2563 11.7259 61.056 12.0966C60.86 12.4631 60.7599 12.8658 60.7556 13.3047V14.6662C60.7556 15.2372 60.86 15.7273 61.0688 16.1364C61.2776 16.5412 61.5695 16.8523 61.9445 17.0696C62.3195 17.2827 62.7585 17.3892 63.2613 17.3892C63.5979 17.3892 63.9026 17.3423 64.1754 17.2486C64.4481 17.1506 64.6846 17.0078 64.8849 16.8203C65.0852 16.6328 65.2364 16.4006 65.3387 16.1236L67.4992 16.3665C67.3629 16.9375 67.1029 17.4361 66.7194 17.8622C66.3401 18.2841 65.8543 18.6122 65.262 18.8466C64.6697 19.0767 63.9921 19.1918 63.2293 19.1918ZM71.3266 5.90909V19H69.0127V5.90909H71.3266ZM78.0687 9.18182V10.9716H72.4246V9.18182H78.0687ZM73.818 6.82955H76.1319V16.0469C76.1319 16.358 76.1788 16.5966 76.2726 16.7628C76.3706 16.9247 76.4984 17.0355 76.6561 17.0952C76.8138 17.1548 76.9885 17.1847 77.1802 17.1847C77.3251 17.1847 77.4572 17.174 77.5765 17.1527C77.7001 17.1314 77.7939 17.1122 77.8578 17.0952L78.2477 18.9041C78.1241 18.9467 77.9473 18.9936 77.7172 19.0447C77.4913 19.0959 77.2143 19.1257 76.8862 19.1342C76.3067 19.1513 75.7846 19.0639 75.3201 18.8722C74.8557 18.6761 74.4871 18.3736 74.2143 17.9645C73.9459 17.5554 73.8138 17.044 73.818 16.4304V6.82955ZM83.6411 19.1918C82.6823 19.1918 81.8514 18.9808 81.1482 18.5589C80.4451 18.1371 79.8996 17.5469 79.5119 16.7884C79.1283 16.0298 78.9366 15.1435 78.9366 14.1293C78.9366 13.1151 79.1283 12.2266 79.5119 11.4638C79.8996 10.701 80.4451 10.1087 81.1482 9.68679C81.8514 9.26491 82.6823 9.05398 83.6411 9.05398C84.5999 9.05398 85.4309 9.26491 86.134 9.68679C86.8371 10.1087 87.3805 10.701 87.764 11.4638C88.1518 12.2266 88.3457 13.1151 88.3457 14.1293C88.3457 15.1435 88.1518 16.0298 87.764 16.7884C87.3805 17.5469 86.8371 18.1371 86.134 18.5589C85.4309 18.9808 84.5999 19.1918 83.6411 19.1918ZM83.6539 17.3381C84.1738 17.3381 84.6085 17.1953 84.9579 16.9098C85.3073 16.62 85.5673 16.2322 85.7377 15.7464C85.9124 15.2607 85.9998 14.7195 85.9998 14.1229C85.9998 13.522 85.9124 12.9787 85.7377 12.4929C85.5673 12.0028 85.3073 11.6129 84.9579 11.3232C84.6085 11.0334 84.1738 10.8885 83.6539 10.8885C83.1212 10.8885 82.6781 11.0334 82.3244 11.3232C81.9749 11.6129 81.7129 12.0028 81.5381 12.4929C81.3677 12.9787 81.2825 13.522 81.2825 14.1229C81.2825 14.7195 81.3677 15.2607 81.5381 15.7464C81.7129 16.2322 81.9749 16.62 82.3244 16.9098C82.6781 17.1953 83.1212 17.3381 83.6539 17.3381Z" fill="black"/>
</svg>
