<svg width="14" height="14" viewBox="0 0 14 14" fill="none" xmlns="http://www.w3.org/2000/svg">
    <g clip-path="url(#clip0_156_1164)">
        <path d="M13.2431 5.936C12.103 5.65075 11.5622 4.34525 12.1669 3.33813C12.4486 2.86913 12.3637 2.46488 12.0846 2.18663L11.8134 1.91537C11.5351 1.63712 11.1309 1.55225 10.6619 1.83313C9.65388 2.43775 8.34837 1.897 8.064 0.756875C7.93187 0.22575 7.58537 0 7.19162 0H6.80838C6.41463 0 6.069 0.22575 5.936 0.756875C5.65075 1.897 4.34525 2.43775 3.33813 1.83313C2.86913 1.55138 2.464 1.63625 2.18575 1.9145L1.9145 2.18575C1.63625 2.464 1.55138 2.86913 1.83313 3.33813C2.43775 4.34613 1.897 5.65162 0.756875 5.936C0.2275 6.06812 0 6.41375 0 6.80838V7.19162C0 7.58537 0.22575 7.931 0.756875 8.064C1.897 8.34925 2.43775 9.65475 1.83313 10.6619C1.55138 11.1309 1.63625 11.5351 1.91537 11.8134L2.18663 12.0846C2.46575 12.3637 2.87088 12.4477 3.33813 12.1669C4.34613 11.5622 5.65162 12.103 5.936 13.2431C6.06812 13.7743 6.41463 14 6.80838 14H7.19162C7.58537 14 7.931 13.7743 8.064 13.2431C8.34925 12.103 9.65475 11.5622 10.6619 12.1669C11.13 12.4477 11.5343 12.3637 11.8134 12.0846L12.0846 11.8134C12.3629 11.5351 12.4477 11.1309 12.1669 10.6619C11.5622 9.65388 12.103 8.34837 13.2431 8.064C13.7743 7.93187 14 7.58537 14 7.19162V6.80838C14 6.41375 13.7725 6.06812 13.2431 5.936ZM7 9.625C5.55013 9.625 4.375 8.44987 4.375 7C4.375 5.55013 5.55013 4.375 7 4.375C8.44987 4.375 9.625 5.55013 9.625 7C9.625 8.44987 8.44987 9.625 7 9.625Z" fill="#585858"/>
    </g>
    <defs>
        <clipPath id="clip0_156_1164">
            <rect width="14" height="14" fill="white"/>
        </clipPath>
    </defs>
</svg>